<mxfile host="app.diagrams.net" agent="Mozilla/5.0 (Windows NT 10.0; Win64; x64) AppleWebKit/537.36 (KHTML, like Gecko) Chrome/131.0.0.0 Safari/537.36" version="25.0.3">
  <diagram name="Page-1" id="4rfsP4FS0YhLfnxtRVdF">
    <mxGraphModel dx="1195" dy="622" grid="1" gridSize="10" guides="1" tooltips="1" connect="1" arrows="1" fold="1" page="1" pageScale="1" pageWidth="850" pageHeight="1100" math="0" shadow="0">
      <root>
        <mxCell id="0" />
        <mxCell id="1" parent="0" />
        <mxCell id="r52vGvfyeMi3x_1KPSF8-7" style="edgeStyle=orthogonalEdgeStyle;rounded=0;orthogonalLoop=1;jettySize=auto;html=1;entryX=0.5;entryY=0;entryDx=0;entryDy=0;" edge="1" parent="1" source="r52vGvfyeMi3x_1KPSF8-1" target="r52vGvfyeMi3x_1KPSF8-4">
          <mxGeometry relative="1" as="geometry" />
        </mxCell>
        <mxCell id="r52vGvfyeMi3x_1KPSF8-1" value="&lt;font style=&quot;font-size: 24px;&quot;&gt;start&lt;/font&gt;" style="strokeWidth=2;html=1;shape=mxgraph.flowchart.start_1;whiteSpace=wrap;" vertex="1" parent="1">
          <mxGeometry x="375" y="40" width="100" height="60" as="geometry" />
        </mxCell>
        <mxCell id="r52vGvfyeMi3x_1KPSF8-2" value="&lt;font style=&quot;font-size: 24px;&quot;&gt;end&lt;/font&gt;" style="strokeWidth=2;html=1;shape=mxgraph.flowchart.start_1;whiteSpace=wrap;" vertex="1" parent="1">
          <mxGeometry x="375" y="770" width="100" height="60" as="geometry" />
        </mxCell>
        <mxCell id="r52vGvfyeMi3x_1KPSF8-9" style="edgeStyle=orthogonalEdgeStyle;rounded=0;orthogonalLoop=1;jettySize=auto;html=1;entryX=0.5;entryY=0;entryDx=0;entryDy=0;" edge="1" parent="1" source="r52vGvfyeMi3x_1KPSF8-3" target="r52vGvfyeMi3x_1KPSF8-6">
          <mxGeometry relative="1" as="geometry" />
        </mxCell>
        <mxCell id="r52vGvfyeMi3x_1KPSF8-13" style="edgeStyle=orthogonalEdgeStyle;rounded=0;orthogonalLoop=1;jettySize=auto;html=1;entryX=0.5;entryY=0;entryDx=0;entryDy=0;" edge="1" parent="1" source="r52vGvfyeMi3x_1KPSF8-3" target="r52vGvfyeMi3x_1KPSF8-11">
          <mxGeometry relative="1" as="geometry" />
        </mxCell>
        <mxCell id="r52vGvfyeMi3x_1KPSF8-3" value="for (i &amp;lt; n, i++)" style="rhombus;whiteSpace=wrap;html=1;" vertex="1" parent="1">
          <mxGeometry x="354" y="220" width="142" height="70" as="geometry" />
        </mxCell>
        <mxCell id="r52vGvfyeMi3x_1KPSF8-8" style="edgeStyle=orthogonalEdgeStyle;rounded=0;orthogonalLoop=1;jettySize=auto;html=1;entryX=0.5;entryY=0;entryDx=0;entryDy=0;" edge="1" parent="1" source="r52vGvfyeMi3x_1KPSF8-4" target="r52vGvfyeMi3x_1KPSF8-3">
          <mxGeometry relative="1" as="geometry" />
        </mxCell>
        <mxCell id="r52vGvfyeMi3x_1KPSF8-4" value="input n" style="shape=parallelogram;perimeter=parallelogramPerimeter;whiteSpace=wrap;html=1;fixedSize=1;" vertex="1" parent="1">
          <mxGeometry x="349" y="150" width="152" height="30" as="geometry" />
        </mxCell>
        <mxCell id="r52vGvfyeMi3x_1KPSF8-10" style="edgeStyle=orthogonalEdgeStyle;rounded=0;orthogonalLoop=1;jettySize=auto;html=1;entryX=1;entryY=1;entryDx=0;entryDy=0;" edge="1" parent="1" source="r52vGvfyeMi3x_1KPSF8-6" target="r52vGvfyeMi3x_1KPSF8-3">
          <mxGeometry relative="1" as="geometry" />
        </mxCell>
        <mxCell id="r52vGvfyeMi3x_1KPSF8-6" value="input arr[i]" style="shape=parallelogram;perimeter=parallelogramPerimeter;whiteSpace=wrap;html=1;fixedSize=1;" vertex="1" parent="1">
          <mxGeometry x="501" y="310" width="152" height="30" as="geometry" />
        </mxCell>
        <mxCell id="r52vGvfyeMi3x_1KPSF8-14" style="edgeStyle=orthogonalEdgeStyle;rounded=0;orthogonalLoop=1;jettySize=auto;html=1;entryX=0.5;entryY=0;entryDx=0;entryDy=0;" edge="1" parent="1" source="r52vGvfyeMi3x_1KPSF8-11" target="r52vGvfyeMi3x_1KPSF8-12">
          <mxGeometry relative="1" as="geometry" />
        </mxCell>
        <mxCell id="r52vGvfyeMi3x_1KPSF8-19" style="edgeStyle=orthogonalEdgeStyle;rounded=0;orthogonalLoop=1;jettySize=auto;html=1;entryX=0.5;entryY=0;entryDx=0;entryDy=0;" edge="1" parent="1" source="r52vGvfyeMi3x_1KPSF8-11" target="r52vGvfyeMi3x_1KPSF8-16">
          <mxGeometry relative="1" as="geometry" />
        </mxCell>
        <mxCell id="r52vGvfyeMi3x_1KPSF8-11" value="for (i &amp;lt; n, i++)" style="rhombus;whiteSpace=wrap;html=1;" vertex="1" parent="1">
          <mxGeometry x="354" y="370" width="142" height="70" as="geometry" />
        </mxCell>
        <mxCell id="r52vGvfyeMi3x_1KPSF8-15" style="edgeStyle=orthogonalEdgeStyle;rounded=0;orthogonalLoop=1;jettySize=auto;html=1;entryX=1;entryY=1;entryDx=0;entryDy=0;" edge="1" parent="1" source="r52vGvfyeMi3x_1KPSF8-12" target="r52vGvfyeMi3x_1KPSF8-11">
          <mxGeometry relative="1" as="geometry" />
        </mxCell>
        <mxCell id="r52vGvfyeMi3x_1KPSF8-12" value="input arr[i]" style="shape=parallelogram;perimeter=parallelogramPerimeter;whiteSpace=wrap;html=1;fixedSize=1;" vertex="1" parent="1">
          <mxGeometry x="501" y="460" width="152" height="30" as="geometry" />
        </mxCell>
        <mxCell id="r52vGvfyeMi3x_1KPSF8-20" style="edgeStyle=orthogonalEdgeStyle;rounded=0;orthogonalLoop=1;jettySize=auto;html=1;entryX=0.5;entryY=0;entryDx=0;entryDy=0;" edge="1" parent="1" source="r52vGvfyeMi3x_1KPSF8-16" target="r52vGvfyeMi3x_1KPSF8-17">
          <mxGeometry relative="1" as="geometry" />
        </mxCell>
        <mxCell id="r52vGvfyeMi3x_1KPSF8-16" value="qsort(array3, n3, sizeof(int),compare)" style="rounded=1;whiteSpace=wrap;html=1;absoluteArcSize=1;arcSize=14;strokeWidth=2;" vertex="1" parent="1">
          <mxGeometry x="317.5" y="530" width="215" height="40" as="geometry" />
        </mxCell>
        <mxCell id="r52vGvfyeMi3x_1KPSF8-21" style="edgeStyle=orthogonalEdgeStyle;rounded=0;orthogonalLoop=1;jettySize=auto;html=1;entryX=0.5;entryY=0;entryDx=0;entryDy=0;" edge="1" parent="1" source="r52vGvfyeMi3x_1KPSF8-17" target="r52vGvfyeMi3x_1KPSF8-18">
          <mxGeometry relative="1" as="geometry" />
        </mxCell>
        <mxCell id="r52vGvfyeMi3x_1KPSF8-17" value="if ( n &amp;gt;= 3)" style="rhombus;whiteSpace=wrap;html=1;" vertex="1" parent="1">
          <mxGeometry x="354" y="610" width="142" height="70" as="geometry" />
        </mxCell>
        <mxCell id="r52vGvfyeMi3x_1KPSF8-18" value="output&lt;div&gt;&quot;The large 3rd element = &quot;, arr[2]&lt;/div&gt;" style="shape=parallelogram;perimeter=parallelogramPerimeter;whiteSpace=wrap;html=1;fixedSize=1;" vertex="1" parent="1">
          <mxGeometry x="532.5" y="690" width="200" height="60" as="geometry" />
        </mxCell>
        <mxCell id="r52vGvfyeMi3x_1KPSF8-22" style="edgeStyle=orthogonalEdgeStyle;rounded=0;orthogonalLoop=1;jettySize=auto;html=1;entryX=0.693;entryY=0.761;entryDx=0;entryDy=0;entryPerimeter=0;" edge="1" parent="1" source="r52vGvfyeMi3x_1KPSF8-18" target="r52vGvfyeMi3x_1KPSF8-17">
          <mxGeometry relative="1" as="geometry" />
        </mxCell>
        <mxCell id="r52vGvfyeMi3x_1KPSF8-24" style="edgeStyle=orthogonalEdgeStyle;rounded=0;orthogonalLoop=1;jettySize=auto;html=1;entryX=0.5;entryY=0;entryDx=0;entryDy=0;entryPerimeter=0;" edge="1" parent="1" source="r52vGvfyeMi3x_1KPSF8-17" target="r52vGvfyeMi3x_1KPSF8-2">
          <mxGeometry relative="1" as="geometry" />
        </mxCell>
        <mxCell id="r52vGvfyeMi3x_1KPSF8-25" value="&lt;font style=&quot;font-size: 16px;&quot;&gt;compare( *a, *b)&lt;/font&gt;" style="strokeWidth=2;html=1;shape=mxgraph.flowchart.start_1;whiteSpace=wrap;" vertex="1" parent="1">
          <mxGeometry x="802.5" y="40" width="150" height="80" as="geometry" />
        </mxCell>
        <mxCell id="r52vGvfyeMi3x_1KPSF8-26" value="&lt;font style=&quot;font-size: 16px;&quot;&gt;return (*(int *) b - *(int *) a&lt;/font&gt;" style="strokeWidth=2;html=1;shape=mxgraph.flowchart.start_1;whiteSpace=wrap;" vertex="1" parent="1">
          <mxGeometry x="780" y="190" width="195" height="80" as="geometry" />
        </mxCell>
        <mxCell id="r52vGvfyeMi3x_1KPSF8-27" style="edgeStyle=orthogonalEdgeStyle;rounded=0;orthogonalLoop=1;jettySize=auto;html=1;entryX=0.5;entryY=0;entryDx=0;entryDy=0;entryPerimeter=0;" edge="1" parent="1" source="r52vGvfyeMi3x_1KPSF8-25" target="r52vGvfyeMi3x_1KPSF8-26">
          <mxGeometry relative="1" as="geometry" />
        </mxCell>
      </root>
    </mxGraphModel>
  </diagram>
</mxfile>
